<svg width="512" height="512" viewBox="0 0 512 512" fill="none" xmlns="http://www.w3.org/2000/svg">
<path d="M104 416H56C51.582 416 48 419.582 48 424V456C48 460.418 51.582 464 56 464H104C108.418 464 112 460.418 112 456V424C112 419.582 108.418 416 104 416ZM96 448H64V432H96V448Z" fill="black" id="id_101"></path>
<path d="M168.121 400.001C165.939 399.974 163.873 400.813 162.343 402.343L146.343 418.343C143.219 421.468 143.219 426.532 146.343 429.657C149.468 432.78 154.532 432.78 157.657 429.657L160 427.314V456C160 460.418 163.582 464 168 464C172.418 464 176 460.418 176 456V427.732C178.204 429.874 180.653 432.094 183.893 432.094C184.833 432.094 185.841 431.906 186.929 431.475C189.977 430.266 191.999 427.281 192 424.001C192 426.048 192.781 428.094 194.343 429.656C197.468 432.779 202.532 432.779 205.657 429.656L208 427.313V456C208 460.418 211.582 464 216 464C220.418 464 224 460.418 224 456V427.732C226.204 429.874 228.653 432.094 231.893 432.094C232.833 432.094 233.841 431.906 234.929 431.475C237.978 430.267 240 427.28 240 424C240 421.04 238.392 418.455 236.002 417.071C233.798 415.046 227.232 408.261 221.825 402.516C220.343 400.941 218.284 400.033 216.121 400C213.936 399.973 211.873 400.812 210.343 402.342L194.343 418.342C192.781 419.904 192.001 421.95 192 423.997C191.999 421.038 190.391 418.454 188.002 417.07C185.798 415.045 179.232 408.26 173.825 402.515C172.343 400.941 170.284 400.033 168.121 400.001Z" fill="black" id="id_102"></path>
<path d="M480 248H376V96V64V32C376 27.582 372.418 24 368 24H144C139.582 24 136 27.582 136 32V64V96V248H32C27.582 248 24 251.582 24 256V480C24 484.418 27.582 488 32 488H480C484.418 488 488 484.418 488 480V256C488 251.582 484.418 248 480 248ZM384 264V332.687L373.657 322.343C372.095 320.781 370.048 320 368 320C365.952 320 363.905 320.781 362.343 322.343L352 332.687V264H384ZM288 40H360V56H288V40ZM288 72H360V88H288V72ZM240 40H272V108.687L261.657 98.343C260.095 96.781 258.048 96 256 96C253.952 96 251.905 96.781 250.343 98.343L240 108.687V40ZM152 40H224V56H152V40ZM152 72H224V88H152V72ZM152 104H224V128C224 131.235 225.949 134.152 228.938 135.391C231.929 136.63 235.368 135.946 237.657 133.658L256 115.313L274.343 133.657C275.874 135.187 277.92 136 280.002 136C281.032 136 282.072 135.801 283.062 135.391C286.051 134.153 288 131.236 288 128V104H360V248H152V104ZM264 280V264H336V280H264ZM336 296V312H264V296H336ZM128 264H160V332.687L149.657 322.343C148.095 320.781 146.048 320 144 320C141.952 320 139.905 320.781 138.343 322.343L128 332.687V264ZM40 264H112V280H40V264ZM40 296H112V312H40V296ZM248 472H40V328H112V352C112 355.235 113.949 358.152 116.938 359.391C119.929 360.63 123.368 359.946 125.657 357.658L144 339.313L162.343 357.657C163.874 359.187 165.92 360 168.002 360C169.032 360 170.072 359.801 171.062 359.391C174.051 358.153 176 355.236 176 352V328H248V472V472ZM248 312H176V296H248V312ZM248 280H176V264H248V280ZM472 472H264V328H336V352C336 355.235 337.949 358.152 340.938 359.391C343.929 360.63 347.368 359.946 349.657 357.658L368 339.313L386.343 357.657C387.874 359.187 389.92 360 392.002 360C393.032 360 394.072 359.801 395.062 359.391C398.051 358.153 400 355.236 400 352V328H472V472ZM472 312H400V296H472V312ZM472 280H400V264H472V280Z" fill="black" id="id_103"></path>
<path d="M328 416H280C275.582 416 272 419.582 272 424V456C272 460.418 275.582 464 280 464H328C332.418 464 336 460.418 336 456V424C336 419.582 332.418 416 328 416ZM320 448H288V432H320V448Z" fill="black" id="id_104"></path>
<path d="M392.121 400.001C389.963 399.974 387.873 400.813 386.343 402.343L370.343 418.343C367.219 421.468 367.219 426.532 370.343 429.657C373.468 432.78 378.532 432.78 381.657 429.657L384 427.314V456C384 460.418 387.582 464 392 464C396.418 464 400 460.418 400 456V427.732C402.204 429.874 404.653 432.094 407.893 432.094C408.833 432.094 409.841 431.906 410.929 431.475C413.977 430.266 415.999 427.281 416 424.001C416 426.048 416.781 428.094 418.343 429.656C421.468 432.779 426.532 432.779 429.657 429.656L432 427.313V456C432 460.418 435.582 464 440 464C444.418 464 448 460.418 448 456V427.732C450.204 429.874 452.653 432.094 455.893 432.094C456.833 432.094 457.841 431.906 458.929 431.475C461.978 430.267 464 427.28 464 424C464 421.04 462.392 418.455 460.002 417.071C457.798 415.046 451.232 408.261 445.825 402.516C444.343 400.941 442.284 400.033 440.121 400C437.961 399.973 435.873 400.812 434.343 402.342L418.343 418.342C416.781 419.904 416.001 421.95 416 423.997C415.999 421.038 414.391 418.454 412.002 417.07C409.798 415.045 403.232 408.26 397.825 402.515C396.343 400.941 394.284 400.033 392.121 400.001Z" fill="black" id="id_105"></path>
<path d="M348.002 193.071C345.798 191.046 339.232 184.261 333.825 178.516C332.343 176.941 330.284 176.033 328.121 176C325.949 175.948 323.873 176.812 322.343 178.342L306.343 194.342C304.781 195.904 304.001 197.95 304 199.997C303.999 197.038 302.391 194.454 300.002 193.07C297.798 191.045 291.232 184.26 285.825 178.515C284.343 176.94 282.284 176.032 280.121 175.999C277.951 175.947 275.873 176.811 274.343 178.341L258.343 194.341C255.219 197.466 255.219 202.53 258.343 205.655C261.468 208.778 266.532 208.778 269.657 205.655L272 203.312V232C272 236.418 275.582 240 280 240C284.418 240 288 236.418 288 232V203.732C290.204 205.874 292.653 208.094 295.893 208.094C296.833 208.094 297.841 207.906 298.929 207.475C301.977 206.266 303.999 203.281 304 200.001C304 202.048 304.781 204.094 306.343 205.656C309.468 208.779 314.532 208.779 317.657 205.656L320 203.313V232C320 236.418 323.582 240 328 240C332.418 240 336 236.418 336 232V203.732C338.204 205.874 340.653 208.094 343.893 208.094C344.833 208.094 345.841 207.906 346.929 207.475C349.978 206.267 352 203.28 352 200C352 197.04 350.392 194.455 348.002 193.071Z" fill="black" id="id_106"></path>
<path d="M200 168H168C163.582 168 160 171.582 160 176V192C160 202.429 166.689 211.321 176 214.624V224H168C163.582 224 160 227.582 160 232C160 236.418 163.582 240 168 240H200C204.418 240 208 236.418 208 232C208 227.582 204.418 224 200 224H192V214.624C201.311 211.322 208 202.429 208 192V176C208 171.582 204.418 168 200 168ZM192 192C192 196.411 188.411 200 184 200C179.589 200 176 196.411 176 192V184H192V192Z" fill="black" id="id_107"></path>
</svg>